<svg xmlns="http://www.w3.org/2000/svg" viewBox="0 0 512 512">
	<path d="M443.74 8.53A8.54 8.54 0 0 0 435.2 0c-29 0-47 19.33-54.58 29.7-22.63-8.49-52.1-12.63-90.48-12.63-38.4 0-67.86 4.14-90.49 12.63C192.07 19.34 174.07 0 145.07 0a8.54 8.54 0 0 0-8.53 8.53c0 30.3 6.4 66.37 8.22 76.04-5.6 15.27-8.22 31.86-8.22 51.96 0 62.78 54.7 153.6 153.6 153.6s153.6-90.82 153.6-153.6c0-20.19-2.62-36.78-8.23-51.96 1.83-9.7 8.23-45.75 8.23-76.04zm-153.6 264.54c-87.91 0-136.54-80.73-136.54-136.54 0-18.93 2.53-34.21 7.95-48.09.6-1.52.74-3.17.42-4.78-.07-.38-6.9-34.8-8.17-65.75 14.46 2.85 24.41 12.28 29.9 19.04a94.36 94.36 0 0 0-11.57 7.5 8.53 8.53 0 1 0 10.44 13.5c21.01-16.25 55.2-23.82 107.57-23.82 52.38 0 86.57 7.57 107.58 23.83a8.53 8.53 0 1 0 10.44-13.5 94.81 94.81 0 0 0-11.59-7.51c5.53-6.73 15.54-16.17 29.9-19.03-1.28 30.93-8.1 65.36-8.16 65.74a8.53 8.53 0 0 0 .42 4.8c5.5 13.95 7.94 28.78 7.94 48.08 0 55.8-48.62 136.53-136.53 136.53zM414.27 444.92c5.4-12.89 12.4-36.05 12.4-69.45 0-55.84-53.63-83.3-55.92-84.44a8.52 8.52 0 0 0-11.43 3.8 8.56 8.56 0 0 0 3.79 11.46c.46.23 46.5 24 46.5 69.18 0 47.54-15.5 71.85-15.64 72.06a8.53 8.53 0 0 0 7.1 13.27c25.6 0 25.6 12.84 25.6 17.07 0 11.2-12.88 17.06-25.6 17.06h-8.53a8.54 8.54 0 0 0 0 17.07h8.53c24.72 0 42.67-14.35 42.67-34.13 0-17.57-10.79-29.32-29.47-32.95zM187.74 494.93h-8.54c-12.72 0-25.6-5.86-25.6-17.06 0-4.23 0-17.07 25.6-17.07a8.53 8.53 0 0 0 7.13-13.23c-.16-.24-15.66-24.56-15.66-72.1 0-45.17 46.04-68.95 46.48-69.17a8.53 8.53 0 0 0-7.63-15.27c-2.29 1.14-55.92 28.6-55.92 84.43 0 33.4 7 56.57 12.4 69.46-18.68 3.62-29.47 15.37-29.47 32.94 0 19.78 17.95 34.14 42.67 34.14h8.53a8.54 8.54 0 0 0 0-17.07zM145.07 384a8.54 8.54 0 0 0-8.53-8.53c-.05 0-5.86-.4-11.2-6.81-6.14-7.36-15.08-27.13-6-77 4.35-23.94-7.01-38.25-19.41-41.42-10.86-2.82-25.29 2.32-31.23 20.13a8.54 8.54 0 0 0 16.2 5.4c2.16-6.5 6.47-10.1 10.8-9 4.97 1.28 9.24 8.65 6.84 21.84-7.86 43.24-4.6 73.85 9.69 90.98 10.5 12.58 22.92 12.94 24.3 12.94a8.54 8.54 0 0 0 8.54-8.53zM341.4 444.21c.24-22.14 1.55-84.5 8.3-118.27a8.52 8.52 0 0 0-6.7-10.04 8.5 8.5 0 0 0-10.03 6.7c-7.11 35.53-8.4 98.36-8.64 121.13h-.06a8.54 8.54 0 0 0 0 17.07h8.53c25.6 0 25.6 12.84 25.6 17.07 0 11.2-12.87 17.06-25.6 17.06h-8.53a25.63 25.63 0 0 1-25.6-25.6v-153.6a8.54 8.54 0 0 0-17.07 0v153.6a25.63 25.63 0 0 1-25.6 25.6h-8.53c-12.72 0-25.6-5.86-25.6-17.06 0-4.23 0-17.07 25.6-17.07H256a8.54 8.54 0 0 0 0-17.07h-.06c-.24-22.77-1.53-85.6-8.64-121.14a8.53 8.53 0 0 0-16.73 3.35c6.75 33.77 8.06 96.13 8.3 118.27-21.5 2.5-34.07 14.69-34.07 33.66 0 19.78 17.95 34.13 42.67 34.13H256a42.64 42.64 0 0 0 34.14-17.1 42.64 42.64 0 0 0 34.13 17.1h8.53c24.72 0 42.67-14.35 42.67-34.13 0-18.97-12.57-31.16-34.07-33.66z"/>
	<path d="M345.6 110.93c-7.05 0-12.8 5.75-12.8 12.8s5.75 12.8 12.8 12.8 12.8-5.74 12.8-12.8-5.74-12.8-12.8-12.8zM247.47 123.73c0-7.05-5.74-12.8-12.8-12.8s-12.8 5.75-12.8 12.8 5.74 12.8 12.8 12.8 12.8-5.74 12.8-12.8zM345.24 222.81a8.53 8.53 0 0 0-11.49 3.68c-1.47 2.84-7.17 3.88-9.48 3.91-10.39 0-21.15-9.18-24.47-19.44 15.01-7.33 24.47-30.05 24.47-40.3 0-17.06-18.93-17.06-34.13-17.06-15.21 0-34.14 0-34.14 17.07 0 10.25 9.46 32.96 24.48 40.3-3.32 10.25-14.1 19.43-24.48 19.43-1.2 0-7.73-.7-9.58-4.1a8.53 8.53 0 0 0-14.97 8.2c6.9 12.6 22.77 12.97 24.55 12.97 13.25 0 26.07-7.57 34.14-18.4 8.06 10.83 20.88 18.4 34.13 18.4 1.82 0 18.05-.38 24.65-13.16a8.53 8.53 0 0 0-3.68-11.5zm-55.1-26.54c-7.04 0-16.16-17.02-17.01-24.58 3.22-1.02 11.4-1.02 17-1.02s13.8 0 17.01 1.02c-.82 7.53-9.95 24.58-17 24.58z"/>
</svg>