<svg viewBox="0 0 80 70" fill="none" xmlns="http://www.w3.org/2000/svg">
    <path id="outer" d="M40.0321 69.6647C39.0256 69.6647 38.0199 69.3465 37.1727 68.7097C34.4084 66.6316 10.0125 48.1618 4.72767 39.7902C2.52377 36.3 -0.360475 30.7609 0.0370463 22.996C0.698381 10.1009 10.7619 0 22.9481 0C30.4568 0 36.5202 3.4086 40.0556 6.01133C43.654 3.4299 49.799 0 57.0521 0C69.2383 0 79.3025 10.1009 79.9632 22.9953C80.3594 30.7459 77.4771 36.2902 75.2748 39.7866C69.9576 48.226 45.6465 66.6379 42.8917 68.7094C42.0452 69.3465 41.0385 69.6647 40.0321 69.6647ZM22.9481 9.51661C15.9497 9.51661 9.93445 15.7822 9.54021 23.4836C9.33702 27.4421 10.3045 30.8003 12.7735 34.7112C15.757 39.4376 30.0226 51.2299 40.0311 58.9286C50.0045 51.2515 64.2212 39.4805 67.2235 34.7152C69.6941 30.7937 70.6625 27.4349 70.4597 23.4833C70.0651 15.7819 64.0498 9.51661 57.0518 9.51661C49.6414 9.51661 43.3984 15.5201 43.3361 15.581C42.426 16.4688 41.1902 16.9722 39.918 16.9384C38.6461 16.9145 37.4303 16.3895 36.5533 15.4683C36.5124 15.4254 30.6829 9.51661 22.9481 9.51661Z"/>
    <path id="inner" d="M56.9071 5C47.2403 5 39.656 12.5129 39.656 12.5129C39.656 12.5129 32.5051 5 22.4041 5C12.5792 5 4.55725 13.4534 4.03207 23.6891C3.736 29.4714 5.5224 33.8711 8.04087 37.8575C13.0705 45.8207 39.6885 65.8245 39.6885 65.8245C39.6885 65.8245 66.2078 45.8893 71.2706 37.8575C73.7943 33.8535 75.5751 29.4714 75.2794 23.6891C74.7539 13.4527 66.7323 5 56.9071 5Z"/>
</svg>
