<svg xmlns="http://www.w3.org/2000/svg" fill="none" viewBox="0 0 19 32">
    <path fill="#FFE57F" d="M9.34 31.56a2.67 2.67 0 1 0 0-5.34 2.67 2.67 0 0 0 0 5.34Z"/>
    <path fill="#FFF8E1" d="M7.56 29.33a.44.44 0 0 1-.44-.44 2.23 2.23 0 0 1 3.38-1.9.45.45 0 0 1-.47.76A1.33 1.33 0 0 0 8 28.9c0 .24-.2.44-.44.44Z"/>
    <path fill="#0277BD" d="M9.34 32a3.11 3.11 0 1 1 2.95-2.14.44.44 0 1 1-.84-.28c.07-.22.1-.45.1-.7a2.23 2.23 0 1 0-1.21 2 .44.44 0 1 1 .4.79c-.44.22-.91.33-1.4.33Z"/>
    <path fill="#FFE57F" d="M9.33 23.56a2.05 2.05 0 0 1-2.05-2.05v-.68c0-2.41.7-4.16 2.2-5.49.5-.45 1.05-.85 1.58-1.22 1.78-1.28 3.06-2.2 3.06-4.88a4.45 4.45 0 0 0-3.39-4.55C8.81 4.2 6.1 4.86 4.3 8.17A2.05 2.05 0 0 1 .7 6.22C3.1 1.79 7.45-.37 11.75.72a8.6 8.6 0 0 1 6.47 8.52c0 4.79-2.75 6.76-4.76 8.2-.47.33-.9.65-1.26.96-.32.29-.81.72-.81 2.43v.68c0 1.13-.92 2.05-2.06 2.05Z"/>
    <path fill="#0277BD" d="M9.34 24a2.5 2.5 0 0 1-2.5-2.49v-.68c0-2.55.74-4.4 2.34-5.82.54-.48 1.12-.9 1.63-1.26 1.73-1.24 2.87-2.05 2.87-4.51a4.02 4.02 0 0 0-3.05-4.12c-1.77-.45-4.25.17-5.94 3.26A2.5 2.5 0 0 1 .1 7.9 2.47 2.47 0 0 1 .3 6C2.83 1.4 7.37-.85 11.87.3a9.03 9.03 0 0 1 6.8 8.94c0 5.01-2.85 7.06-4.94 8.56-.46.33-.9.63-1.22.93-.28.25-.67.6-.67 2.1v.68A2.5 2.5 0 0 1 9.33 24Zm.22-19.9a4.88 4.88 0 0 1 5 5.14c0 2.91-1.42 3.94-3.23 5.23-.5.36-1.06.76-1.56 1.2-1.4 1.25-2.04 2.88-2.04 5.16v.68a1.6 1.6 0 0 0 3.21 0v-.68c0-1.76.5-2.35.97-2.77.37-.32.81-.64 1.29-.98 2.04-1.47 4.58-3.28 4.58-7.84 0-3.9-2.47-7.15-6.14-8.08C7.54.12 3.4 2.18 1.09 6.43a1.59 1.59 0 0 0 .64 2.17c.78.42 1.76.13 2.18-.64C5.47 5.1 7.67 4.1 9.56 4.1Z"/>
    <path fill="#FFF8E1" d="M1.48 7.08a.44.44 0 0 1-.39-.66C3.4 2.19 7.54.13 11.64 1.17a8.02 8.02 0 0 1 4.27 2.7.44.44 0 1 1-.69.57 7.13 7.13 0 0 0-3.8-2.41c-3.69-.94-7.44.96-9.55 4.83a.44.44 0 0 1-.4.23ZM8.17 21.27a.44.44 0 0 1-.44-.44c0-2.31.63-3.9 2.04-5.15.5-.45 1.06-.85 1.56-1.2 1.4-1 2.6-1.87 3.04-3.58a.44.44 0 1 1 .86.22c-.52 2.03-1.91 3.02-3.39 4.08-.47.34-1.01.72-1.48 1.14-1.2 1.07-1.74 2.46-1.74 4.49 0 .24-.2.44-.45.44Z"/>
</svg>